<svg width="150" height="122" viewBox="0 0 150 122" fill="none" xmlns="http://www.w3.org/2000/svg">
<path d="M115.474 22.2727C124.295 24.8903 126.067 36.6054 118.415 41.7149L89.942 60.7264L73.2842 53.9536C69.1102 52.2565 64.4143 52.3974 60.3497 54.3417C52.8145 57.9461 49.3182 66.739 52.3209 74.5335L53.4125 77.3668C56.2803 84.8111 63.4348 89.722 71.4124 89.722H73.4956C76.3106 89.722 79.1003 89.1895 81.7175 88.1528L92.1074 84.0369C94.0177 83.2802 95.7259 82.0287 97.0351 80.4451C102.931 73.3131 99.0587 62.3114 89.942 60.7264L110.447 33.6158C115.059 27.5184 123.329 25.5168 130.219 28.8309C134.894 31.0799 138.195 35.4488 139.082 40.5607L141.875 56.6749C146.37 82.5987 129.084 107.285 103.186 111.928L68.6366 118.122C54.7749 120.607 40.4923 117.53 28.8835 109.557L26.7552 108.096C10.504 96.9355 2.40685 77.2089 6.13057 57.8496C8.69982 44.4923 16.6429 32.7767 28.1002 25.4454L32.6219 22.5521C46.5607 13.633 63.4834 10.6475 79.6327 14.2586L115.474 22.2727Z" fill="url(#paint0_linear_11_2)"/>
<line y1="-3" x2="10.9524" y2="-3" transform="matrix(-0.662266 0.749269 -0.786333 -0.617803 58.8975 24.6188)" stroke="#9D5D5D" stroke-width="6"/>
<line y1="-3" x2="10.9524" y2="-3" transform="matrix(-0.662266 0.749269 -0.786333 -0.617803 42.9401 20.5157)" stroke="#FBFF25" stroke-width="6"/>
<line y1="-3" x2="10.9524" y2="-3" transform="matrix(-0.662266 0.749269 -0.786333 -0.617803 20.8898 53.6144)" stroke="#C82727" stroke-width="6"/>
<line y1="-3" x2="10.9524" y2="-3" transform="matrix(-0.662266 0.749269 -0.786333 -0.617803 61.2186 12.3094)" stroke="#CC1E1E" stroke-width="6"/>
<line y1="-3" x2="10.9524" y2="-3" transform="matrix(-0.662266 0.749269 -0.786333 -0.617803 72.2437 24.6188)" stroke="#2A499A" stroke-width="6"/>
<line y1="-3" x2="10.9524" y2="-3" transform="matrix(-0.662266 0.749269 -0.786333 -0.617803 68.4719 37.2018)" stroke="#F3F824" stroke-width="6"/>
<line y1="-3" x2="10.9524" y2="-3" transform="matrix(-0.662266 0.749269 -0.786333 -0.617803 42.6499 33.0986)" stroke="#814949" stroke-width="6"/>
<line y1="-3" x2="10.9524" y2="-3" transform="matrix(-0.662266 0.749269 -0.786333 -0.617803 53.9652 41.3049)" stroke="#BC3EC7" stroke-width="6"/>
<line y1="-3" x2="10.9524" y2="-3" transform="matrix(-0.662266 0.749269 -0.786333 -0.617803 35.3965 49.5112)" stroke="#343BE3" stroke-width="6"/>
<line y1="-3" x2="12.6868" y2="-3" transform="matrix(-0.71321 0.70095 -0.741655 -0.670781 83.5639 24.8676)" stroke="url(#paint1_linear_11_2)" stroke-width="6"/>
<line y1="-3" x2="10.9524" y2="-3" transform="matrix(-0.662266 0.749269 -0.786333 -0.617803 55.4158 49.5112)" stroke="#DB1E1E" stroke-width="6"/>
<line y1="-3" x2="10.9524" y2="-3" transform="matrix(-0.662266 0.749269 -0.786333 -0.617803 79.4971 41.3049)" stroke="#D84AC9" stroke-width="6"/>
<line y1="-3" x2="10.9524" y2="-3" transform="matrix(-0.662266 0.749269 -0.786333 -0.617803 28.1431 37.2018)" stroke="#30B6EF" stroke-width="6"/>
<path d="M92.4386 34.3214C88.9665 29.7153 92.5075 23.1577 98.2631 23.5383L112.976 24.5112C114.057 24.5827 115.126 24.7842 116.159 25.1113L128.118 28.8986C141.397 33.1037 148.385 47.6317 143.38 60.6303L138.881 72.3132C136.934 77.3695 131.452 80.1057 126.241 78.6219L120.896 77.1C117.253 76.0628 113.579 78.6403 113.315 82.4185C113.025 86.558 108.701 89.1432 104.917 87.4386L103.177 86.6543C99.4262 84.9645 97.8144 80.5092 99.6155 76.811L102.458 70.9745C102.718 70.441 102.853 69.8552 102.853 69.2617C102.853 66.1112 99.3187 64.2533 96.7235 66.0396L85.5197 73.7512C84.275 74.6079 82.7447 74.9441 81.2556 74.6879L79.0417 74.307C74.1161 73.4598 73.364 66.7023 77.9015 64.6071C81.9683 62.7292 81.7895 56.8131 77.5638 55.3267C72.4367 53.5233 73.4809 45.9842 78.9052 45.6422L87.4845 45.1012C92.8389 44.7636 95.668 38.6055 92.4386 34.3214Z" fill="url(#paint2_linear_11_2)"/>
<defs>
<linearGradient id="paint0_linear_11_2" x1="72.3888" y1="10.1211" x2="72.3888" y2="123.504" gradientUnits="userSpaceOnUse">
<stop offset="0.166374" stop-color="#DEA9F0"/>
<stop offset="0.412929" stop-color="#DEA9F0" stop-opacity="0.955"/>
<stop offset="0.571097" stop-color="#DD9FF3" stop-opacity="0.922627"/>
<stop offset="0.9293" stop-color="#B763D5" stop-opacity="0.922627"/>
<stop offset="1" stop-color="#DEA9F0" stop-opacity="0"/>
</linearGradient>
<linearGradient id="paint1_linear_11_2" x1="6.34341" y1="0" x2="6.34341" y2="1" gradientUnits="userSpaceOnUse">
<stop stop-color="#FD3333"/>
<stop offset="0.445" stop-color="#FD3333" stop-opacity="0.85"/>
<stop offset="1" stop-color="#FD3333" stop-opacity="0"/>
</linearGradient>
<linearGradient id="paint2_linear_11_2" x1="103.515" y1="22.5673" x2="103.515" y2="90.9529" gradientUnits="userSpaceOnUse">
<stop stop-color="#FBFF25"/>
<stop offset="0.33" stop-color="#E0D518" stop-opacity="0.983542"/>
<stop offset="0.595" stop-color="#C2A608" stop-opacity="0.964733"/>
<stop offset="0.945" stop-color="#EC9717" stop-opacity="0.914435"/>
<stop offset="0.9699" stop-color="#E7EB1D" stop-opacity="0.633333"/>
<stop offset="0.97" stop-color="#323225" stop-opacity="0.411111"/>
<stop offset="1" stop-color="#FBFF25" stop-opacity="0"/>
</linearGradient>
</defs>
</svg>
